<?xml version="1.0" encoding="utf-8"?>
<!-- Generator: Adobe Illustrator 26.2.1, SVG Export Plug-In . SVG Version: 6.00 Build 0)  -->
<svg version="1.1" id="Layer_1" xmlns="http://www.w3.org/2000/svg" xmlns:xlink="http://www.w3.org/1999/xlink" x="0px" y="0px"
	 viewBox="0 0 600 600" style="enable-background:new 0 0 600 600;" xml:space="preserve">
<style type="text/css">
	.st0{fill:#FFFFFF;}
	.st1{fill:#010101;}
	.st2{fill:#7B7E92;}
	.st3{fill:#C9CAD0;}
	.st4{fill:none;stroke:#010101;stroke-miterlimit:10;}
</style>
<g>
	<rect x="218.18" y="14.35" class="st0" width="279.02" height="571.3"/>
	<path class="st1" d="M495.7,15.85v568.3H219.68V15.85H495.7 M498.7,12.85H216.68v574.3H498.7V12.85L498.7,12.85z"/>
</g>
<g>
	<rect x="332.27" y="304.06" class="st2" width="229.03" height="281.59"/>
	<path class="st1" d="M559.79,305.56v278.59H333.77V305.56H559.79 M562.79,302.56H330.77v284.59h232.03V302.56L562.79,302.56z"/>
</g>
<g>
	<rect x="38.71" y="143.82" class="st3" width="293.12" height="441.83"/>
	<path class="st1" d="M330.33,145.32v438.83H40.21V145.32H330.33 M333.33,142.32H37.21v444.83h296.12V142.32L333.33,142.32z"/>
</g>
<rect x="276.93" y="202.57" class="st1" width="20.51" height="88.45"/>
<rect x="276.93" y="396.14" class="st1" width="20.51" height="142.29"/>
<rect x="523.05" y="373.07" class="st1" width="20.51" height="142.29"/>
<rect x="457.04" y="149.37" class="st1" width="20.51" height="142.29"/>
<line class="st4" x1="37.85" y1="332.68" x2="333.97" y2="330.12"/>
</svg>
