<?xml version="1.0" encoding="utf-8"?>
<!-- Generator: Adobe Illustrator 26.2.1, SVG Export Plug-In . SVG Version: 6.00 Build 0)  -->
<svg version="1.1" id="Layer_1" xmlns="http://www.w3.org/2000/svg" xmlns:xlink="http://www.w3.org/1999/xlink" x="0px" y="0px"
	 viewBox="0 0 600 600" style="enable-background:new 0 0 600 600;" xml:space="preserve">
<style type="text/css">
	.st0{fill:#4FB7E1;}
	.st1{fill:#010101;}
	.st2{fill:#FAFAFD;}
	.st3{fill:none;stroke:#010101;stroke-width:3;stroke-miterlimit:10;}
	.st4{fill:#C9CAD0;}
	.st5{fill:#4FB7E1;stroke:#010101;stroke-width:3;stroke-miterlimit:10;}
	
		.st6{clip-path:url(#SVGID_00000008861594282478515630000014569766892974486698_);fill:#4FB7E1;stroke:#010101;stroke-width:3;stroke-miterlimit:10;}
	.st7{clip-path:url(#SVGID_00000008861594282478515630000014569766892974486698_);}
	.st8{fill:#CCEAF6;}
</style>
<g>
	<path class="st0" d="M192.71,580.16c-35.83,0-69.5-4.64-94.8-13.08c-24.43-8.14-38.44-19.2-38.44-30.33s14.01-22.19,38.44-30.34
		c25.3-8.43,58.97-13.08,94.8-13.08c8.57,0,17.17,0.27,25.58,0.82l1.33,0.09l0.24-1.32c6.75-37.33,78.42-66.58,163.16-66.58
		c90.26,0,163.69,32.45,163.69,72.34c0,39.89-73.43,72.34-163.69,72.34c-28.29,0-56.19-3.27-80.69-9.45l-0.51-0.13l-0.48,0.22
		C276.23,573.25,235.62,580.16,192.71,580.16z"/>
	<path class="st1" d="M383.03,427.85c43.71,0,84.76,7.59,115.58,21.37c14.81,6.62,26.4,14.29,34.45,22.79
		c8.07,8.53,12.16,17.5,12.16,26.68s-4.09,18.15-12.16,26.68c-8.05,8.51-19.64,16.17-34.45,22.79
		c-30.82,13.78-71.87,21.37-115.58,21.37c-28.17,0-55.94-3.25-80.32-9.4l-1.03-0.26l-0.96,0.44c-24.93,11.49-65.3,18.35-108,18.35
		c-35.68,0-69.18-4.62-94.33-13c-23.78-7.93-37.41-18.46-37.41-28.91c0-10.45,13.64-20.99,37.41-28.91c25.15-8.38,58.65-13,94.33-13
		c8.53,0,17.11,0.27,25.48,0.81l2.67,0.17l0.48-2.63c3.15-17.39,21.11-33.69,50.58-45.9C302.18,434.75,341.64,427.85,383.03,427.85
		 M383.03,424.85c-86.69,0-157.77,29.85-164.64,67.81c-8.31-0.53-16.89-0.82-25.67-0.82c-74.42,0-134.74,20.11-134.74,44.91
		c0,24.81,60.33,44.91,134.74,44.91c44.96,0,84.78-7.34,109.25-18.63c23.95,6.04,51.6,9.49,81.06,9.49
		c91.23,0,165.19-33.06,165.19-73.84S474.26,424.85,383.03,424.85L383.03,424.85z"/>
</g>
<g>
	<polygon class="st2" points="53.28,453.79 53.28,50.22 302.98,19.86 469.07,65.16 469.07,455.31 219.33,502.09 	"/>
	<path class="st1" d="M302.87,21.39l164.7,44.92v387.76l-248.16,46.49L54.78,452.66V51.55L302.87,21.39 M303.09,18.34L51.78,48.89
		v406.02l167.47,48.72l251.31-47.08V64.01L303.09,18.34L303.09,18.34z"/>
</g>
<polyline class="st3" points="219.26,503.63 219.26,97.61 470.57,67.06 "/>
<g>
	<polygon class="st4" points="253.59,119.83 448.52,96.91 448.52,434.05 253.59,469.48 	"/>
	<path class="st1" d="M447.02,98.6v334.2l-191.93,34.89V121.16L447.02,98.6 M450.02,95.22L252.09,118.5v352.79l197.93-35.98V95.22
		L450.02,95.22z"/>
</g>
<line class="st3" x1="54.93" y1="51.83" x2="219.36" y2="97.51"/>
<path class="st5" d="M302.79,498.01c25.82-47.89-19.01-107.21-19.01-107.21l96.02-8.68c0,0,47.55,61.36,37.13,101.25"/>
<g>
	<defs>
		<polygon id="SVGID_1_" points="258.18,118.5 456.11,95.22 456.11,435.3 258.18,471.28 		"/>
	</defs>
	<clipPath id="SVGID_00000121239169812576357970000000439535225518764445_">
		<use xlink:href="#SVGID_1_"  style="overflow:visible;"/>
	</clipPath>
	
		<path style="clip-path:url(#SVGID_00000121239169812576357970000000439535225518764445_);fill:#4FB7E1;stroke:#010101;stroke-width:3;stroke-miterlimit:10;" d="
		M312.23,453.77c-68.53,0-123.32-23.99-123.32-47.96s55.55-43.39,124.08-43.39s124.08,19.43,124.08,43.39
		c0,10.34-10.14,26.8-27.4,34.26"/>
	<g style="clip-path:url(#SVGID_00000121239169812576357970000000439535225518764445_);">
		<g>
			<polygon class="st8" points="154.48,396.86 154.63,209.91 284.54,183.93 413.64,217.09 413.5,397.81 282.88,437.42 			"/>
			<path class="st1" d="M284.5,185.46l127.63,32.79L412,396.7l-129.11,39.15l-126.9-40.09l0.14-184.62L284.5,185.46 M284.59,182.39
				l-131.46,26.29l-0.15,189.28l129.89,41.03L415,398.92l0.14-183L284.59,182.39L284.59,182.39z"/>
		</g>
		<g>
			<line class="st3" x1="283.3" y1="437.79" x2="283.44" y2="253.56"/>
		</g>
		<line class="st3" x1="414.31" y1="224.01" x2="283.35" y2="252.83"/>
		<line class="st3" x1="152.45" y1="217.71" x2="283.35" y2="252.83"/>
	</g>
</g>
</svg>
