<?xml version="1.0" encoding="utf-8"?>
<!-- Generator: Adobe Illustrator 26.2.1, SVG Export Plug-In . SVG Version: 6.00 Build 0)  -->
<svg version="1.1" id="Layer_1" xmlns="http://www.w3.org/2000/svg" xmlns:xlink="http://www.w3.org/1999/xlink" x="0px" y="0px"
	 viewBox="0 0 600 600" style="enable-background:new 0 0 600 600;" xml:space="preserve">
<style type="text/css">
	.st0{fill:url(#SVGID_1_);}
	.st1{fill:#FFFFFF;}
</style>
<g>
	<radialGradient id="SVGID_1_" cx="300" cy="300" r="275.2162" gradientUnits="userSpaceOnUse">
		<stop  offset="8.040404e-03" style="stop-color:#CCEAF6"/>
		<stop  offset="1" style="stop-color:#4FB7E1"/>
	</radialGradient>
	<path class="st0" d="M527.25,575.22H72.75c-26.49,0-47.97-21.48-47.97-47.97V72.75c0-26.49,21.48-47.97,47.97-47.97h454.49
		c26.49,0,47.97,21.48,47.97,47.97v454.49C575.22,553.74,553.74,575.22,527.25,575.22z"/>
</g>
<g>
	<path class="st1" d="M258.41,140.72c9.71,0,18.41,6.52,21.15,15.85l41.41,140.99c1.66,5.65,1.02,11.61-1.8,16.79
		c-2.82,5.17-7.49,8.93-13.15,10.59l-140.99,41.41c-2.04,0.6-4.13,0.9-6.23,0.9c-9.71,0-18.41-6.52-21.15-15.85L96.24,210.41
		c-3.43-11.67,3.28-23.95,14.95-27.38l140.99-41.41C254.22,141.03,256.31,140.72,258.41,140.72L258.41,140.72 M258.41,130.72
		c-2.99,0-6.03,0.42-9.05,1.31l-140.99,41.41c-16.99,4.99-26.72,22.81-21.73,39.79l41.41,140.99c4.1,13.97,16.88,23.03,30.75,23.03
		c2.99,0,6.03-0.42,9.05-1.31l140.99-41.41c16.99-4.99,26.72-22.81,21.73-39.79l-41.41-140.99
		C285.05,139.79,272.27,130.72,258.41,130.72L258.41,130.72z"/>
</g>
<g>
	<path class="st1" d="M461.85,210.27c20.94,0,37.97,17.03,37.97,37.97v161.29c0,20.94-17.03,37.97-37.97,37.97H300.56
		c-20.94,0-37.97-17.03-37.97-37.97V248.24c0-20.94,17.03-37.97,37.97-37.97H461.85 M461.85,200.27H300.56
		c-26.49,0-47.97,21.48-47.97,47.97v161.29c0,26.49,21.48,47.97,47.97,47.97h161.29c26.49,0,47.97-21.48,47.97-47.97V248.24
		C509.82,221.75,488.34,200.27,461.85,200.27L461.85,200.27z"/>
</g>
</svg>
