<?xml version="1.0" encoding="utf-8"?>
<!-- Generator: Adobe Illustrator 26.2.1, SVG Export Plug-In . SVG Version: 6.00 Build 0)  -->
<svg version="1.1" id="Layer_1" xmlns="http://www.w3.org/2000/svg" xmlns:xlink="http://www.w3.org/1999/xlink" x="0px" y="0px"
	 viewBox="0 0 600 600" style="enable-background:new 0 0 600 600;" xml:space="preserve">
<style type="text/css">
	.st0{fill:#FFFFFF;}
	.st1{fill:#010101;}
	.st2{fill:#4FB7E1;}
	.st3{fill:#FFFFFF;stroke:#010101;stroke-width:3;stroke-miterlimit:10;}
</style>
<g>
	<g>
		<path class="st0" d="M322.91,203.59c-3.5,0-5.88-0.87-7.08-2.59c-2.75-3.91-1.68-15.86,36.33-51.95
			c22-20.9,45.89-39.79,46.13-39.98c0.57-0.48,54.08-45.09,85.64-45.09c7.45,0,12.89,2.42,16.62,7.39
			c3.44,4.58,4.48,9.61,3.17,15.37c-6.79,29.81-74.25,65.13-74.93,65.48l-0.07,0.04l-0.06,0.04
			C427.87,152.82,350.04,203.59,322.91,203.59z"/>
		<path class="st1" d="M483.92,62.49v3h0c6.95,0,11.99,2.22,15.42,6.79c3.16,4.21,4.11,8.83,2.9,14.14
			c-6.64,29.13-73.48,64.13-74.15,64.48l-0.13,0.07l-0.13,0.08c-0.78,0.51-78.24,51.04-104.93,51.04c-2.98,0-4.95-0.66-5.85-1.95
			c-1.55-2.21-3.53-12.33,36.11-49.98c21.95-20.85,45.82-39.72,46.05-39.91l0.04-0.03l0.03-0.03c0.53-0.45,53.62-44.7,84.64-44.71
			L483.92,62.49 M483.92,62.49c-32.48,0-86.56,45.41-86.56,45.41s-95.71,75.52-82.76,93.97c1.57,2.24,4.45,3.22,8.31,3.22
			c27.89,0,106.57-51.53,106.57-51.53s96.89-50.29,72.27-83.08C497.48,64.8,491.25,62.49,483.92,62.49L483.92,62.49z"/>
	</g>
	<g>
		<path class="st0" d="M82.39,503.13l62.55-141.39l-0.04-0.4c-2.66-26.25,5.17-61.28,23.94-107.08
			c11.96-29.2,29.35-53.81,50.27-71.17c20.36-16.9,42.63-25.83,64.4-25.83c13.6,0,26.52,3.51,38.42,10.44
			c27.2,15.84,46.04,48.42,51.67,89.4l0.05,0.39l0.24,0.31c19.94,26.36,72.92,96.39,33.83,127.59
			c-53.42,42.63-87.76,68.76-119.23,68.76c0,0,0,0,0,0c-3.34,0-6.69-0.3-9.94-0.9l-1.15-0.21l-59.48,130.84L82.39,503.13z"/>
		<path class="st1" d="M283.52,158.76c13.33,0,26,3.44,37.66,10.24c26.8,15.6,45.37,47.79,50.94,88.31l0.11,0.78l0.47,0.62
			c19.7,26.04,72.04,95.22,34.09,125.51c-53.16,42.43-87.32,68.44-118.3,68.44c-3.25,0-6.5-0.29-9.67-0.88l-2.3-0.42l-0.97,2.13
			l-58.3,128.25L84.3,502.52l61.85-139.81l0.32-0.73l-0.08-0.79c-2.63-26,5.16-60.79,23.84-106.36
			c11.87-28.97,29.11-53.38,49.84-70.59C240.17,167.57,262.1,158.76,283.52,158.76 M283.52,155.76
			c-44.45,0-91.16,37.15-116.06,97.93c-13.98,34.12-27.33,75.39-24.05,107.8L80.48,503.74l138.12,82.29l59.69-131.3
			c3.38,0.62,6.78,0.93,10.21,0.93c32.33,0,67.44-27.01,120.17-69.09c39.37-31.43-10.83-99.6-33.57-129.66
			c-5.5-39.99-23.64-73.75-52.4-90.49C310.3,159.18,297.01,155.76,283.52,155.76L283.52,155.76z"/>
	</g>
	<g>
		<rect x="227.46" y="14.23" class="st1" width="207.87" height="382.27"/>
		<path class="st1" d="M434.83,14.73V396H227.96V14.73H434.83 M435.83,13.73H226.96V397h208.87V13.73L435.83,13.73z"/>
	</g>
	<g>
		<rect x="242.08" y="41.06" class="st2" width="178.63" height="328.61"/>
		<path class="st1" d="M420.21,41.56v327.61H242.58V41.56H420.21 M421.21,40.56H241.58v329.61h179.63V40.56L421.21,40.56z"/>
	</g>
	<path class="st3" d="M206.96,253.68l99.42-59.79c23.42-14.08,47.9,16.52,29,36.26c-3.78,3.95-8.42,8.11-14.07,12.47
		c-0.55,0.43-1.09,0.88-1.6,1.35l-37.54,34.89c-4.46,4.15-7.12,9.86-7.44,15.94c-0.93,17.57-8.81,57.96-58.16,92.18"/>
	<g>
		<path class="st0" d="M442.96,200.91c-14.62,0-26.52-11.9-26.52-26.52s11.9-26.52,26.52-26.52s26.52,11.9,26.52,26.52
			S457.59,200.91,442.96,200.91z"/>
		<path class="st1" d="M442.96,149.36c13.8,0,25.02,11.23,25.02,25.02s-11.23,25.02-25.02,25.02s-25.02-11.23-25.02-25.02
			S429.16,149.36,442.96,149.36 M442.96,146.36c-15.48,0-28.02,12.55-28.02,28.02s12.55,28.02,28.02,28.02s28.02-12.55,28.02-28.02
			S458.44,146.36,442.96,146.36L442.96,146.36z"/>
	</g>
	<g>
		<path class="st0" d="M442.96,256.95c-14.62,0-26.52-11.9-26.52-26.52s11.9-26.52,26.52-26.52s26.52,11.9,26.52,26.52
			S457.59,256.95,442.96,256.95z"/>
		<path class="st1" d="M442.96,205.41c13.8,0,25.02,11.23,25.02,25.02s-11.23,25.02-25.02,25.02s-25.02-11.23-25.02-25.02
			S429.16,205.41,442.96,205.41 M442.96,202.41c-15.48,0-28.02,12.55-28.02,28.02s12.55,28.02,28.02,28.02s28.02-12.55,28.02-28.02
			S458.44,202.41,442.96,202.41L442.96,202.41z"/>
	</g>
	<g>
		<path class="st0" d="M442.96,313c-14.62,0-26.52-11.9-26.52-26.52c0-14.62,11.9-26.52,26.52-26.52s26.52,11.9,26.52,26.52
			C469.49,301.1,457.59,313,442.96,313z"/>
		<path class="st1" d="M442.96,261.45c13.8,0,25.02,11.23,25.02,25.02s-11.23,25.02-25.02,25.02s-25.02-11.23-25.02-25.02
			S429.16,261.45,442.96,261.45 M442.96,258.45c-15.48,0-28.02,12.55-28.02,28.02s12.55,28.02,28.02,28.02s28.02-12.55,28.02-28.02
			S458.44,258.45,442.96,258.45L442.96,258.45z"/>
	</g>
</g>
</svg>
